<?xml version="1.0" encoding="UTF-8"?>
<svg id="Ebene_2" data-name="Ebene 2" xmlns="http://www.w3.org/2000/svg" viewBox="0 0 403.54 358.01">
  <defs>
    <style>
      .cls-1 {
        letter-spacing: 0em;
      }

      .cls-2 {
        letter-spacing: -.02em;
      }

      .cls-3 {
        font-family: Montserrat-Medium, Montserrat;
        font-size: 24.07px;
        font-weight: 500;
      }

      .cls-3, .cls-4, .cls-5 {
        fill: #c19a6a;
      }

      .cls-4 {
        font-family: Montserrat-ExtraBold, Montserrat;
        font-size: 64.19px;
        font-weight: 700;
      }

      .cls-6 {
        letter-spacing: 0em;
      }

      .cls-7 {
        letter-spacing: -.04em;
      }

      .cls-5 {
        stroke-width: 0px;
      }

      .cls-8 {
        letter-spacing: 0em;
      }

      .cls-9 {
        letter-spacing: 0em;
      }

      .cls-10 {
        letter-spacing: 0em;
      }

      .cls-11 {
        letter-spacing: -.01em;
      }

      .cls-12 {
        letter-spacing: 0em;
      }
    </style>
  </defs>
  <text class="cls-4" transform="translate(33.43 240.86)"><tspan x="0" y="0">C</tspan><tspan class="cls-1" x="47.37" y="0">L</tspan><tspan x="87.04" y="0">AS</tspan><tspan class="cls-2" x="179.02" y="0">S</tspan><tspan class="cls-7" x="219.58" y="0">Y</tspan><tspan x="261.56" y="0">.IO</tspan></text>
  <text class="cls-3" transform="translate(82.83 276.27)"><tspan class="cls-10" x="0" y="0">c</tspan><tspan class="cls-12" x="13.58" y="0">lassi</tspan><tspan class="cls-6" x="65.52" y="0">f</tspan><tspan x="74.26" y="0">yi</tspan><tspan class="cls-8" x="94.43" y="0">n</tspan><tspan x="110.89" y="0">g t</tspan><tspan class="cls-9" x="143.94" y="0">h</tspan><tspan x="160.4" y="0">e futu</tspan><tspan class="cls-11" x="232.66" y="0">r</tspan><tspan x="242.24" y="0">e</tspan></text>
  <g>
    <path class="cls-5" d="M172.08,95.2l-31.97,14.5c-1.6.73-2.63,2.32-2.63,4.08v63.77h34.59v-82.35Z"/>
    <path class="cls-5" d="M263.04,85.41l19.24,8.52c1.74.77,2.86,2.5,2.86,4.4v77c0,1.22-.99,2.21-2.21,2.21h-19.89v-92.14Z"/>
    <path class="cls-5" d="M220.52,52.34l18.93,8.96c1.94.92,3.17,2.87,3.17,5.01v111.24h-22.11V52.34Z"/>
    <path class="cls-5" d="M154.79,83.06v14.74l22.86-9.94h20.85c.93,0,1.68.75,1.68,1.68v88.01s13.45,0,13.45,0V52.34l-56.25,26.62c-1.59.75-2.6,2.35-2.6,4.1Z"/>
    <path class="cls-5" d="M192.29,177.55h-12.57c-.58,0-1.05-.47-1.05-1.05v-82.56l13.66,1.18c.58.05,1.02.53,1.02,1.11v80.27c0,.58-.47,1.05-1.05,1.05Z"/>
    <path class="cls-5" d="M256.5,178.56h-4.7c-1.46,0-2.64-1.18-2.64-2.64v-85.92c0-1.54,1.03-2.89,2.52-3.29l4.82-1.3v93.15Z"/>
  </g>
</svg>