<?xml version="1.0" encoding="UTF-8"?>
<svg xmlns="http://www.w3.org/2000/svg" viewBox="0 0 403.54 341.79">
  <defs>
    <style>
      .cls-1 {
        stroke-dasharray: 0 0 10.9 10.9;
      }

      .cls-1, .cls-2, .cls-3, .cls-4, .cls-5, .cls-6 {
        stroke: #ededed;
        stroke-linecap: round;
        stroke-width: 5px;
      }

      .cls-1, .cls-2, .cls-3, .cls-4, .cls-5, .cls-6, .cls-7, .cls-8 {
        fill: none;
        stroke-miterlimit: 10;
      }

      .cls-9 {
        stroke-width: 0px;
      }

      .cls-2 {
        stroke-dasharray: 0 0 11.15 11.15;
      }

      .cls-3 {
        stroke-dasharray: 0 0 12.07 12.07;
      }

      .cls-4 {
        stroke-dasharray: 0 0 11.62 11.62;
      }

      .cls-5 {
        stroke-dasharray: 0 0 11.82 11.82;
      }

      .cls-7 {
        stroke-dasharray: 0 0 12.13 12.13;
      }

      .cls-7, .cls-8 {
        stroke: #1d1d1b;
        stroke-linecap: square;
        stroke-width: 7px;
      }
    </style>
  </defs>
  <g id="Ebene_1" data-name="Ebene 1">
    <path class="cls-9" d="M205.33,49.93s-23.07,17.48-45.41,34.41v-31.14h-12.78v40.82c-22.55,17.09-45.76,34.67-45.76,34.67,0,0,0,207.91,0,207.91h207.91v-207.91l-103.95-78.76Z"/>
    <rect class="cls-9" x="309.28" y="261.79" width="53.46" height="8.24"/>
    <rect class="cls-9" x="47.92" y="196.24" width="53.46" height="8.24"/>
    <g>
      <path class="cls-8" d="M82.11,336.86c-1.35-1.6-2.6-3.16-3.75-4.68"/>
      <path class="cls-7" d="M71.62,322.1c-6.89-12.1-7.14-20.77-5.39-26.95,2.73-9.68,9.64-10.79,15.39-23.83,5.95-13.48,8.12-33.94-.5-40.22-8.97-6.54-21.11,8.47-38.23,2.48-9.7-3.39-19.78-13.1-20.36-25.32-.46-9.74,5.16-20.05,13.41-24.33,10.13-5.26,17.56,2.01,29.79-3.97,7.49-3.67,11.5-9.72,12.91-11.92,7.86-12.22,9.32-19.18,7.88-29.79-1.55-11.43-8.15-21.43-6.89-28.12.9-4.78,6.25-11.17,12.6-14.03,7.57-3.41,21.9-3.12,32.59-8.01,8.77-4.01,14.6-15.58,13.41-24.83-1.03-7.99-6.6-8.84-7.45-16.88-.86-8.16,3.67-18.71,12.41-22.34,11.22-4.67,21.91,1.55,26.07,10.43,2.43,5.2,2.15,13.54,8.94,15.46,8.07,2.29,13.23-8.8,27.14-12.61,14.65-4.02,31.19-.88,42.13,9.56,8.86,8.46,4.09,14.19,12.91,23.34,12.86,13.33,26.16,4.41,39.72,16.88,10.8,9.94,5.38,18.37,18.87,32.28,9.35,9.64,20.44,25.49,20.28,37.16-.24,17.16-9.2,35.89-16.3,46.76-7.42,11.35-8.07,32.83-.08,40.63,10.84,10.59,28.63.5,38.32,4.06,6.83,2.51,13.73,5.45,17.38,12.41,5.13,9.78,2.18,24.68-6.46,31.78-10.54,8.67-23.65.88-30.29,9.93-4.32,5.9-2.64,14.5-1.99,17.88.37,1.91.91,3.67,1.53,5.27"/>
      <path class="cls-8" d="M344.1,330.64c1.37,2.16,2.74,3.75,3.67,4.74"/>
    </g>
  </g>
  <g id="Ebene_2" data-name="Ebene 2">
    <g>
      <path class="cls-6" d="M62.75,338.35c-1.36-1.61-2.62-3.16-3.81-4.64"/>
      <path class="cls-3" d="M51.78,324c-8.12-12.42-8.62-20.76-4.81-34.28,2.62-9.29,7.41-14.65,10.91-18.56,2.1-2.35,3.55-3.97,5-6.97"/>
      <path class="cls-6" d="M65.03,258.57c.6-2.02,1.04-4.01,1.33-5.84-1.8.52-3.75,1.01-5.83,1.41"/>
      <path class="cls-5" d="M48.77,254.96c-3.92-.22-8.1-.96-12.49-2.5-15.51-5.43-32.69-21.28-33.73-43.25-.83-17.52,9.11-35.21,24.17-43.03,10.07-5.23,18.83-4.45,24.63-3.93,4.02.36,4.44.3,5.59-.26,2.64-1.29,4.27-3.82,4.88-4.78,5.86-9.1,5.55-11.35,4.88-16.28-.42-3.13-1.76-6.87-3.05-10.48-2.52-7.06-5.37-15.05-3.68-24.02,2.15-11.4,12.03-23.15,24.03-28.56,5.85-2.64,12.3-3.68,18.54-4.7,1.99-.32,4.09-.66,6.1-1.06"/>
      <path class="cls-6" d="M114.39,70.7c.7-.23,1.35-.47,1.93-.73.73-.57,1.6-2.16,1.92-3.38-.91-1.24-2.11-2.89-3.28-5.02"/>
      <path class="cls-1" d="M111.3,51.36c-.17-.92-.31-1.88-.42-2.89-1.64-15.55,6.3-35.28,24.62-42.9,15.53-6.46,32.85-2.39,44.08,9.13"/>
      <path class="cls-6" d="M183.11,18.84c1.18,1.59,2.25,3.28,3.21,5.06,1.61-.96,3.38-1.91,5.3-2.8"/>
      <path class="cls-4" d="M202.62,17.37c21.34-4.97,43.6.67,58.66,15.03,8.44,8.06,10.64,15.9,11.95,20.59q.68,2.43,1.54,3.33c1.67,1.73,2.55,2.03,8.61,2.94,7.61,1.14,19.12,2.87,30.27,13.12,9,8.28,11.81,16.83,13.67,22.48,1.46,4.43,2.19,6.65,6.01,10.59,6.16,6.35,26.24,28.83,25.92,51.37-.37,26.08-15.07,50.54-19.56,57.42-.55.83-1,1.87-1.37,3.01"/>
      <path class="cls-6" d="M337.23,222.94c-.2,2.22-.15,4.36.1,5.99,1.71-.05,4.07-.34,5.97-.6"/>
      <path class="cls-2" d="M354.39,227.21c4.38-.12,9.04.29,13.68,2,7.23,2.66,20.69,7.61,28.19,21.9,9.52,18.13,4.38,43.49-11.46,56.52-4.6,3.78-9.36,5.98-13.81,7.29"/>
      <path class="cls-6" d="M365.56,316.14c-2.15.35-4.16.54-5.96.66.2.78,1.19,2.95,2.43,5.49"/>
      <path class="cls-6" d="M365.15,328.42c1.4,2.66,2.61,4.82,2.98,5.21"/>
    </g>
  </g>
</svg>